<?xml version="1.0" standalone="no"?>
<!DOCTYPE svg PUBLIC "-//W3C//DTD SVG 20010904//EN"
 "http://www.w3.org/TR/2001/REC-SVG-20010904/DTD/svg10.dtd">
<svg version="1.0" xmlns="http://www.w3.org/2000/svg"
 width="1344.000000pt" height="743.000000pt" viewBox="0 0 1344.000000 743.000000"
 preserveAspectRatio="xMidYMid meet">
<metadata>
Created by potrace 1.16, written by Peter Selinger 2001-2019
</metadata>
<g transform="translate(0.000000,743.000000) scale(0.100000,-0.100000)"
fill="#000000" stroke="none">
<path d="M3822 6646 c-32 -9 -33 -11 -27 -45 4 -20 11 -39 17 -42 6 -4 -30
-10 -78 -13 -121 -10 -382 -43 -479 -62 -218 -41 -489 -103 -482 -110 2 -3 44
5 93 16 293 69 562 110 844 129 80 5 158 15 174 20 34 14 39 14 31 1 -3 -5 1
-10 9 -10 8 0 18 5 21 10 3 6 16 10 28 10 18 0 19 -2 7 -10 -10 -6 43 -10 160
-10 246 0 535 -15 718 -37 44 -5 53 -3 47 7 -6 10 7 11 66 7 100 -8 268 -44
223 -48 -5 0 -22 -3 -39 -6 -26 -4 -71 0 -240 22 -16 2 -68 7 -115 11 -47 3
-87 8 -90 9 -12 7 -380 20 -575 20 -302 0 -485 -13 -755 -51 -19 -3 -59 -9
-88 -15 -29 -6 -65 -12 -80 -15 -28 -4 -64 -11 -72 -14 -3 -1 -8 -2 -13 -1 -6
1 -43 -7 -107 -24 -8 -2 -28 -4 -43 -4 -16 -1 -26 -5 -22 -10 3 -5 0 -13 -6
-17 -8 -4 -9 -3 -5 4 10 16 5 15 -54 -8 -28 -11 -60 -20 -70 -20 -11 0 -20 -7
-20 -15 0 -8 -5 -15 -11 -15 -5 0 -8 4 -5 9 4 5 -2 8 -11 6 -10 -2 -22 -4 -26
-4 -5 -1 -5 -7 -1 -13 5 -10 4 -10 -5 -2 -6 6 -26 8 -44 6 -27 -4 -29 -6 -12
-12 18 -6 17 -8 -11 -23 -17 -9 -35 -13 -39 -9 -5 4 -5 1 0 -7 5 -9 2 -18 -9
-26 -39 -29 17 -22 160 20 437 127 897 182 1431 172 642 -12 1023 -95 1299
-283 238 -162 620 -534 1024 -998 52 -60 106 -122 120 -137 23 -26 35 -29 175
-48 83 -10 134 -19 115 -20 -19 0 -89 6 -155 13 l-120 14 -35 43 c-160 197
-591 661 -760 819 -227 211 -356 308 -515 387 -276 139 -795 214 -1380 200
-597 -14 -1060 -104 -1565 -304 -221 -87 -489 -222 -490 -246 0 -5 19 4 43 18
57 36 287 147 379 184 109 43 321 117 418 146 47 14 93 28 104 31 14 5 16 3
10 -7 -6 -11 -5 -12 7 -2 33 27 369 93 634 124 123 15 260 22 498 26 316 6
327 5 327 -13 1 -17 2 -18 13 -2 11 14 26 15 132 7 588 -42 909 -159 1225
-442 238 -214 794 -796 912 -955 57 -77 52 -81 -79 -66 -152 18 -201 27 -180
31 24 6 21 22 -5 33 -18 8 -15 9 17 5 90 -12 220 -23 224 -19 2 2 -3 4 -11 4
-9 0 -42 33 -74 73 -32 39 -173 187 -313 327 -140 140 -244 243 -232 228 22
-26 23 -32 17 -113 -4 -47 -3 -85 2 -85 4 0 9 17 10 38 4 59 8 76 19 79 8 3
11 -22 10 -74 l-2 -78 -47 23 c-67 32 -123 40 -209 30 -207 -24 -414 -122
-465 -220 -18 -35 -7 -42 60 -35 25 3 44 1 41 -3 -3 -4 34 -13 83 -20 48 -7
94 -16 102 -21 17 -9 -174 -2 -260 11 -30 4 -57 4 -60 0 -3 -5 -178 12 -390
36 -212 24 -410 47 -442 51 -31 3 -62 9 -69 14 -10 6 -10 45 -1 206 24 391 72
694 117 739 13 13 21 25 19 27 -3 3 2 7 11 10 22 9 19 -1 -12 -41 -15 -20 -21
-32 -15 -28 8 5 10 2 6 -8 -3 -9 -9 -16 -13 -16 -9 0 -7 -57 3 -67 5 -5 6 -2
2 7 -4 8 -1 7 7 -3 9 -11 18 -14 21 -8 6 9 43 7 74 -4 7 -3 10 0 7 5 -11 17 6
52 21 46 10 -4 12 -2 8 6 -5 8 -2 9 9 5 16 -6 22 4 17 28 -1 5 2 7 6 3 4 -4
22 2 41 13 36 22 90 31 100 16 3 -4 11 -6 18 -3 23 9 30 -35 9 -52 -17 -13
-17 -14 -1 -9 9 4 17 2 17 -3 0 -9 11 -5 49 17 2 2 -2 11 -10 20 -13 17 -13
17 6 3 11 -8 25 -21 31 -29 8 -10 13 -11 18 -3 10 16 29 15 20 0 -6 -10 -4
-10 7 0 16 15 33 16 23 0 -5 -8 1 -9 22 -5 17 3 36 1 44 -5 12 -8 12 -9 -3 -4
-10 3 -16 2 -13 -3 4 -5 -2 -7 -13 -4 -10 3 -22 0 -25 -6 -6 -9 48 -10 89 -1
6 1 17 2 25 1 16 -1 4 -9 -86 -55 -29 -15 -58 -34 -65 -42 -8 -9 28 4 79 30
50 25 97 46 103 46 18 0 66 -45 61 -58 -2 -7 0 -12 6 -12 17 0 22 13 10 27 -9
11 -7 15 10 20 12 3 22 10 22 15 0 6 7 5 16 -3 13 -10 17 -10 26 2 8 11 9 11
4 -3 -6 -20 10 -34 18 -16 3 7 3 1 1 -15 -3 -19 0 -25 8 -20 7 4 22 6 35 4 12
-1 22 3 22 10 0 7 6 5 14 -6 7 -10 12 -28 10 -39 -3 -12 -1 -15 2 -8 5 10 9 9
18 -4 10 -13 15 -14 21 -4 6 9 4 11 -6 6 -8 -4 -5 -1 5 8 16 13 17 18 6 31 -7
9 -19 14 -27 11 -8 -3 -12 -2 -9 3 3 4 -7 14 -22 22 -15 8 -29 16 -32 19 -3 3
-36 20 -74 38 -132 64 -288 110 -485 144 -46 8 -76 18 -79 27 -3 10 0 12 14 7
11 -5 33 -9 49 -11 17 -2 68 -11 115 -20 47 -10 91 -18 98 -18 6 0 12 -4 12
-9 0 -5 4 -7 8 -4 8 5 127 -28 212 -58 51 -19 222 -98 230 -106 3 -3 27 -20
53 -38 78 -52 182 -138 291 -240 99 -93 99 -93 -14 19 -363 359 -600 469
-1155 535 -158 18 -530 33 -715 27 -176 -5 -442 -29 -605 -54 -161 -24 -440
-85 -480 -103 -16 -8 -79 -29 -140 -46 -60 -17 -119 -35 -130 -40 -11 -5 -47
-18 -80 -28 -297 -99 -565 -253 -565 -326 0 -39 150 -126 303 -176 45 -14 65
-26 60 -33 -4 -7 0 -6 10 1 9 8 20 11 25 8 32 -20 936 -188 996 -185 11 1 -91
20 -229 44 -257 44 -406 72 -413 79 -11 12 68 359 93 405 18 34 109 148 195
242 68 76 68 76 147 93 43 9 92 18 108 20 17 2 53 7 80 12 28 4 66 8 85 10 19
1 35 3 35 4 0 6 183 24 253 25 28 0 52 2 52 5 0 3 28 6 63 7 34 1 73 3 87 3
26 1 38 1 148 2 78 0 126 -30 136 -87 8 -43 7 -51 -8 -47 -8 3 -8 0 0 -8 13
-13 7 -50 -8 -50 -5 0 -7 -4 -4 -8 2 -4 -4 -39 -15 -77 -10 -39 -17 -75 -15
-82 3 -6 1 -13 -4 -15 -5 -2 -11 -15 -14 -31 -2 -15 -7 -36 -11 -46 -3 -11 -1
-22 4 -26 7 -3 8 0 5 9 -3 9 -1 16 5 16 6 0 11 7 11 15 0 8 5 16 10 16 6 1 14
2 19 3 5 0 13 5 18 10 4 5 3 6 -4 2 -6 -3 -14 -2 -18 4 -3 6 1 13 9 16 9 3 13
11 9 17 -3 5 -1 7 5 3 5 -3 13 0 15 6 4 9 6 10 6 1 1 -6 -3 -14 -8 -17 -11 -7
-2 -46 10 -46 5 0 15 14 24 30 19 36 28 39 15 5 -5 -14 -6 -25 -2 -25 4 -1 -4
-10 -18 -22 -16 -14 -19 -19 -7 -15 14 5 16 2 13 -21 -18 -104 -47 -329 -57
-442 -7 -74 -13 -136 -14 -138 -2 -1 -32 2 -69 8 -36 6 -94 12 -128 14 -35 2
-90 7 -123 10 -119 12 -36 -3 130 -24 94 -12 171 -25 173 -29 1 -4 15 -6 30
-4 15 3 137 -9 272 -26 135 -17 384 -47 555 -67 308 -36 333 -42 335 -76 0
-10 7 -11 -176 12 -87 10 -314 38 -504 60 -492 58 -463 55 -825 106 -723 101
-1262 195 -1490 259 -222 61 -361 117 -431 170 -36 28 -51 73 -34 104 7 13 7
21 1 21 -16 0 -25 -69 -13 -95 6 -13 32 -38 58 -56 51 -35 225 -107 312 -129
28 -8 52 -16 52 -19 -1 -3 -16 -24 -35 -45 -30 -34 -37 -37 -51 -25 -21 17
-54 22 -54 7 0 -6 -3 -8 -6 -5 -4 4 -1 13 6 22 16 20 6 19 -14 -1 -15 -14 -16
-14 -16 0 0 9 5 16 12 16 6 0 8 3 4 7 -4 5 -14 -1 -22 -11 -13 -19 -14 -19
-14 -1 0 17 -1 17 -19 1 -13 -12 -21 -14 -26 -6 -4 6 -13 9 -20 6 -7 -2 -18 1
-25 7 -10 9 -11 9 -6 0 4 -7 2 -13 -3 -13 -6 0 -11 7 -11 15 0 8 -4 15 -10 15
-5 0 -7 -6 -4 -14 4 -10 -3 -13 -29 -12 -18 2 -40 6 -47 11 -9 6 -11 4 -5 -5
6 -9 2 -10 -15 -5 -13 4 -25 3 -29 -3 -4 -7 -12 -8 -21 -2 -13 8 -13 10 0 10
9 0 16 8 16 19 0 15 -5 17 -26 12 -23 -7 -40 -7 -57 -1 -19 6 -39 4 -45 -4 -3
-5 -17 -2 -32 7 -16 11 -27 13 -31 6 -4 -6 -11 -6 -18 -1 -19 14 -57 21 -57
10 0 -6 -9 -8 -20 -5 -11 3 -23 1 -26 -4 -3 -5 4 -9 15 -9 11 0 23 -5 27 -12
4 -6 3 -8 -4 -4 -20 12 -97 14 -111 2 -11 -8 -13 -8 -8 1 5 8 0 11 -13 10 -11
-1 -20 -5 -20 -9 0 -4 -7 -5 -15 -2 -11 5 -13 2 -9 -10 4 -10 1 -16 -7 -16 -7
0 -9 3 -6 7 8 7 -11 33 -25 33 -5 0 -7 -4 -3 -9 5 -9 -13 -18 -54 -26 -12 -2
-19 0 -16 6 4 5 -1 9 -10 9 -10 0 -13 -5 -9 -12 5 -8 2 -8 -10 1 -9 8 -16 10
-14 5 3 -8 -6 -16 -14 -13 -31 9 -38 5 -36 -18 2 -16 -3 -28 -12 -30 -11 -3
-12 -2 -2 4 9 7 7 14 -8 31 -24 26 -25 32 -3 32 9 0 14 3 10 6 -12 12 -43 -7
-44 -27 -2 -16 2 -19 15 -14 14 5 15 4 4 -7 -11 -11 -16 -10 -28 6 -8 11 -14
14 -14 7 0 -9 -11 -11 -35 -8 -19 3 -32 1 -29 -4 3 -5 9 -7 14 -4 5 3 11 1 14
-4 4 -5 -5 -8 -19 -6 -14 1 -25 -1 -25 -5 0 -4 -8 -7 -17 -6 -10 0 -20 -3 -23
-8 -3 -5 10 -10 27 -11 21 -2 30 1 26 8 -4 6 0 8 11 4 10 -4 27 -2 38 4 16 8
19 8 16 -2 -4 -12 -32 -21 -75 -23 -21 -1 -27 -9 -24 -29 1 -4 -5 -15 -14 -23
-9 -9 -15 -11 -15 -4 0 6 -4 9 -9 6 -5 -4 -12 0 -14 6 -4 10 -6 9 -6 -1 -1
-11 -5 -10 -20 3 -18 16 -20 16 -35 -6 -9 -12 -16 -18 -16 -13 0 6 -5 2 -11
-8 -6 -10 -8 -22 -4 -25 4 -4 10 -1 12 6 3 6 11 12 19 12 9 0 12 -4 9 -10 -4
-6 13 -10 42 -11 26 0 68 -2 93 -4 25 -2 88 -6 140 -9 88 -6 290 -20 420 -30
30 -3 130 -10 223 -17 92 -7 167 -17 167 -22 0 -5 -24 -6 -57 -3 -219 24 -387
31 -378 16 7 -12 9 -12 -134 0 -62 5 -134 16 -160 24 -57 18 -226 31 -217 18
3 -6 4 -16 1 -24 -4 -11 -22 -12 -83 -7 -42 3 -87 2 -100 -2 -13 -5 -33 -9
-45 -9 -19 0 -18 3 11 20 42 26 41 40 -5 40 -21 0 -55 3 -76 6 -32 6 -37 4
-37 -13 0 -10 5 -24 12 -31 9 -9 7 -13 -6 -18 -25 -9 -40 9 -28 33 8 14 5 34
-9 77 -11 32 -19 72 -17 89 3 27 9 34 53 50 28 10 59 21 70 24 11 3 28 13 38
21 15 14 17 13 17 -8 l0 -23 22 20 c13 11 41 26 63 33 22 7 51 18 65 25 175
84 241 116 395 188 99 47 302 145 450 219 149 75 294 146 323 158 29 13 51 25
48 27 -6 7 -341 -145 -648 -295 -394 -191 -635 -296 -752 -327 -54 -14 -101
-24 -104 -21 -2 3 3 8 12 12 9 3 16 12 16 20 0 17 17 19 22 3 2 -7 13 -9 26
-5 12 4 20 11 17 16 -3 5 -1 11 4 14 5 4 11 -1 13 -9 3 -13 6 -13 32 0 15 8
38 15 50 15 11 0 39 9 61 20 30 15 34 19 13 15 -14 -3 -62 -10 -105 -16 -96
-13 -198 -40 -266 -72 -51 -23 -148 -110 -146 -131 0 -6 3 -6 6 2 6 15 24 16
20 0 -1 -6 6 -14 15 -16 13 -2 16 1 12 12 -3 9 3 19 16 26 27 14 37 6 20 -15
-11 -14 -7 -15 42 -9 51 6 55 5 61 -16 3 -12 3 -19 0 -16 -3 3 -15 1 -26 -5
-15 -9 -18 -8 -11 3 6 10 5 11 -7 2 -8 -6 -24 -11 -37 -12 -21 -1 -59 -28 -50
-37 2 -2 39 -5 82 -6 54 -2 80 -7 83 -16 15 -39 -94 -85 -148 -63 -15 7 -36
10 -46 8 -12 -2 -25 7 -38 27 l-20 30 -3 -30 c-2 -16 -14 -64 -27 -105 -31
-95 -45 -159 -39 -175 4 -10 17 -8 55 6 64 24 69 24 69 -6 0 -23 4 -25 43 -26
32 0 37 -2 22 -9 -11 -4 -30 -6 -42 -3 -21 5 -23 1 -23 -31 0 -20 2 -36 4 -36
1 0 24 11 50 25 49 26 86 32 86 15 0 -6 12 -9 28 -8 15 1 42 -6 60 -16 41 -21
72 -28 72 -15 0 5 -5 9 -11 9 -12 0 -38 29 -39 41 0 4 17 3 38 -2 58 -13 72
-9 22 7 -25 7 -64 14 -87 14 -40 0 -64 20 -25 20 9 1 28 7 42 15 24 14 23 14
-25 15 -39 0 -53 4 -62 19 -10 17 -10 21 5 25 47 15 334 50 593 71 180 15 749
33 739 23 -3 -3 -120 -8 -260 -12 -140 -4 -271 -11 -290 -15 -31 -8 -32 -9 -8
-10 15 -1 30 -6 33 -11 4 -6 10 -8 14 -6 4 3 13 1 20 -4 8 -4 -8 -8 -39 -8
-35 0 -57 -5 -68 -16 -11 -11 -12 -16 -4 -16 7 0 11 -4 8 -8 -2 -4 0 -14 6
-22 8 -13 9 -12 5 1 -4 12 1 15 18 13 34 -3 45 -12 38 -30 -5 -14 -3 -15 18
-3 29 15 27 15 45 -8 11 -15 13 -15 8 -2 -3 10 0 20 7 25 8 4 10 3 5 -4 -5 -8
2 -12 18 -12 14 0 26 -4 26 -10 0 -5 -6 -10 -12 -10 -9 0 -8 -4 2 -10 23 -15
29 -12 22 12 -3 15 -2 19 7 14 7 -4 10 -2 9 4 -2 7 5 14 15 15 11 2 17 -2 15
-13 -2 -9 5 -18 15 -20 9 -2 17 1 17 7 0 6 -8 7 -17 4 -16 -6 -16 -4 -5 9 12
15 17 15 58 1 25 -8 54 -13 64 -10 11 3 18 1 14 -4 -8 -14 10 -11 31 5 12 9
26 11 35 6 15 -8 44 13 33 24 -4 3 -2 6 3 6 5 0 10 -39 10 -88 2 -82 26 -177
80 -306 5 -14 -12 -5 -58 27 -200 143 -423 177 -616 95 -24 -10 -49 -15 -55
-11 -7 3 -9 3 -5 -2 8 -8 -91 -80 -99 -71 -9 9 -44 -14 -41 -27 5 -23 -114
-147 -165 -171 l-47 -23 26 34 c24 32 25 36 10 52 -9 10 -39 28 -67 41 -47 23
-52 23 -60 7 -10 -17 -31 -24 -26 -9 5 17 -95 90 -145 106 -15 4 -16 10 -7 36
6 16 17 30 24 30 8 0 11 7 8 18 -2 10 4 28 14 40 17 21 20 21 62 6 28 -9 48
-11 54 -5 6 6 0 12 -14 16 -23 8 -23 8 -4 15 16 6 11 9 -23 15 -24 4 -46 13
-49 21 -3 10 -21 14 -57 14 l-51 -1 33 -30 c29 -26 31 -31 18 -44 -8 -8 -20
-32 -26 -52 -39 -119 -119 -77 -121 62 0 43 -3 54 -9 40 -5 -11 -9 -16 -9 -12
-1 4 -11 3 -22 -4 -17 -8 -23 -8 -29 1 -5 7 -14 10 -22 7 -29 -11 -39 7 -29
51 5 23 5 44 1 47 -10 6 -34 -81 -62 -225 -18 -92 -29 -125 -57 -168 -39 -60
-87 -93 -97 -67 -9 22 -33 18 -31 -5 1 -12 8 -20 19 -20 10 0 18 -4 18 -10 0
-5 -8 -6 -17 -3 -16 6 -16 5 -4 -10 16 -20 2 -23 -18 -4 -11 10 -13 9 -8 -5 6
-18 2 -20 -50 -21 -20 -1 -23 -6 -23 -38 0 -37 0 -37 38 -33 33 4 35 3 16 -8
-12 -7 -19 -19 -17 -25 3 -8 -4 -13 -16 -13 l-21 0 0 -549 0 -548 143 -7 c78
-4 252 -13 387 -21 335 -19 440 -25 471 -25 24 0 28 -6 43 -65 19 -77 20 -88
4 -79 -8 4 -10 3 -5 -2 5 -5 13 -9 19 -9 16 0 29 -43 16 -51 -6 -4 -8 -3 -5 3
9 14 -16 34 -40 34 -39 -1 -53 -5 -53 -14 0 -5 -7 -4 -16 4 -13 10 -17 10 -24
-1 -5 -8 -18 -11 -38 -7 -17 3 -35 1 -43 -6 -11 -10 -11 -9 0 6 8 10 21 15 31
12 25 -8 80 23 80 46 0 10 -4 19 -9 19 -6 0 -8 -9 -6 -20 2 -13 0 -18 -7 -14
-5 4 -14 1 -18 -6 -4 -7 -24 -13 -43 -13 -20 -1 -35 -4 -34 -8 1 -4 -7 -15
-18 -24 -11 -9 -15 -14 -10 -11 17 8 38 -10 42 -36 2 -15 0 -19 -5 -10 -7 10
-11 10 -22 -3 -10 -12 -11 -18 -1 -28 10 -9 11 -8 6 6 -9 22 11 22 24 0 9 -16
10 -16 11 5 0 13 6 22 15 22 8 0 15 5 15 11 0 5 -6 7 -12 3 -10 -6 -10 -5 -1
8 7 8 10 18 6 21 -3 4 2 7 11 7 10 0 32 -12 49 -26 21 -18 32 -22 37 -13 6 8
13 5 26 -11 11 -12 24 -27 29 -34 37 -42 38 -46 16 -46 -14 0 -20 4 -15 11 3
6 3 14 -2 18 -5 3 -14 15 -20 25 -6 11 -16 22 -24 24 -8 3 -10 0 -5 -9 6 -11
5 -11 -5 -2 -7 7 -27 10 -44 7 -17 -2 -26 -2 -20 1 15 7 5 47 -10 42 -13 -4
-9 -46 6 -64 15 -18 2 -16 -16 3 -9 8 -16 11 -16 5 0 -9 31 -31 44 -31 3 0 6
7 6 16 0 10 4 12 13 7 6 -4 19 -7 27 -5 8 1 23 -10 33 -23 l18 -25 -63 1 c-35
1 -70 5 -78 9 -8 4 -24 4 -35 0 -19 -7 -18 -8 5 -14 14 -4 61 -9 105 -11 44
-2 94 -4 110 -5 55 -4 67 -1 61 15 -8 23 0 18 19 -11 l17 -27 -78 7 c-78 6
-138 8 -504 20 -213 7 -246 10 -266 27 -10 8 -14 9 -14 0 0 -8 -4 -8 -14 1 -8
7 -12 16 -9 21 2 4 -7 7 -21 7 -14 0 -26 -5 -26 -11 0 -8 -14 -10 -41 -6 -26
3 -42 1 -45 -6 -5 -15 -114 -19 -114 -5 0 6 7 8 15 5 8 -4 17 -2 20 3 4 6 -8
10 -25 10 -27 0 -31 -3 -25 -17 5 -15 4 -16 -6 -6 -17 17 -29 16 -29 -3 0 -8
5 -12 10 -9 6 3 10 1 10 -4 0 -6 -4 -11 -10 -11 -5 0 -10 -9 -10 -20 0 -11 4
-20 8 -20 5 0 9 -7 9 -15 0 -8 -4 -12 -9 -9 -4 3 -8 -340 -8 -762 0 -714 2
-768 18 -780 16 -13 16 -13 0 -14 -17 0 -18 -35 -18 -585 l0 -585 1421 0 c937
0 1418 4 1414 10 -3 6 -1 10 4 10 6 0 11 -4 11 -10 0 -16 4619 -13 4639 3 12
9 13 9 7 0 -5 -10 235 -13 1128 -13 755 0 1137 3 1141 10 3 5 12 10 18 10 7 0
6 -4 -3 -10 -10 -6 633 -10 1823 -10 l1837 1 0 1862 c0 1571 -2 1866 -14 1882
-13 18 -14 17 -11 -8 3 -21 -1 -27 -15 -27 -10 0 -26 -3 -36 -7 -10 -4 -15 -2
-11 3 3 6 -11 9 -36 9 -23 -1 -48 2 -54 8 -9 6 -13 5 -13 -4 0 -12 -2 -12 -9
0 -6 9 -15 11 -27 6 -36 -15 -64 -14 -75 3 -9 15 -10 14 -6 -5 6 -27 -1 -29
-19 -5 -11 14 -15 15 -23 3 -9 -14 -35 -6 -26 9 3 4 -2 11 -11 14 -8 3 -12 10
-9 16 3 5 2 10 -3 10 -6 0 -24 22 -42 50 -18 27 -60 75 -93 106 -55 49 -57 52
-19 28 23 -15 42 -30 42 -35 0 -5 6 -6 13 -4 7 3 27 -17 46 -47 19 -29 36 -47
38 -41 6 16 33 4 33 -14 0 -8 -5 -11 -12 -7 -9 5 -10 4 -3 -4 16 -16 47 -18
53 -3 3 10 0 11 -9 5 -11 -6 -12 -5 -2 8 7 8 10 17 7 21 -3 3 2 4 12 3 10 -2
20 -8 22 -15 3 -9 10 -7 23 5 19 17 20 17 13 -2 -5 -15 -4 -16 5 -4 8 11 7 18
-4 26 -24 18 7 25 38 9 22 -11 26 -11 31 1 4 10 2 12 -6 8 -7 -5 -8 -3 -4 5 6
9 12 8 26 -4 13 -12 18 -13 17 -3 -1 33 4 49 13 43 6 -4 9 -14 8 -22 -2 -9 3
-18 10 -20 9 -4 10 1 2 21 -8 23 -7 26 15 32 14 3 25 11 25 18 0 7 3 7 8 1 4
-5 15 -16 25 -24 14 -11 17 -11 15 -1 -2 7 3 15 11 18 8 2 11 0 7 -6 -3 -5 1
-12 9 -15 18 -7 23 11 25 90 1 51 -2 62 -13 57 -8 -3 -18 -1 -21 4 -3 5 2 9
12 8 15 -1 17 13 20 132 2 101 0 133 -10 137 -7 2 -103 6 -213 9 -110 3 -220
8 -245 10 -25 3 -136 8 -247 11 -181 4 -203 3 -203 -11 0 -10 5 -14 16 -10 8
3 12 2 9 -4 -3 -6 2 -10 12 -10 18 -1 63 -32 63 -45 0 -4 -6 -2 -13 4 -24 19
-26 0 -4 -25 20 -23 22 -23 29 -7 5 15 7 14 7 -5 1 -15 5 -21 13 -16 7 4 8 3
4 -4 -4 -6 7 -26 23 -44 28 -31 30 -32 24 -8 -3 14 -10 31 -16 38 -5 7 -7 15
-4 18 9 10 178 -165 192 -199 7 -18 23 -41 34 -51 46 -42 17 -33 -48 14 -38
27 -73 50 -79 50 -5 0 -28 24 -50 53 -44 56 -212 217 -302 289 -320 256 -830
473 -1405 597 -244 53 -488 101 -510 101 -36 -1 42 -30 175 -65 320 -84 606
-169 809 -240 262 -92 601 -241 601 -266 0 -5 12 -15 28 -22 15 -7 59 -33 97
-58 174 -114 224 -144 232 -136 7 7 -144 114 -212 150 -33 17 -63 35 -66 40
-3 5 -9 9 -12 9 -3 -1 -23 16 -44 36 l-38 36 60 -33 c120 -67 265 -174 384
-282 67 -60 121 -113 121 -117 0 -4 29 -37 64 -74 56 -60 61 -68 40 -68 -13 0
-24 3 -24 8 0 10 -52 64 -80 82 -12 8 -29 21 -36 28 -8 7 -14 10 -14 6 0 -4
-8 2 -17 13 -24 27 -61 45 -75 37 -7 -4 -8 -3 -4 4 6 10 -4 14 -30 11 -3 0
-15 10 -26 23 -11 13 -24 24 -29 24 -5 1 -14 2 -20 3 -5 0 -7 6 -4 11 4 6 3
10 -2 9 -4 -1 -11 0 -15 1 -5 1 -14 3 -20 4 -7 1 -12 8 -10 15 1 7 -1 10 -6 7
-5 -3 -21 1 -36 9 -18 10 -24 10 -20 2 4 -7 -1 -5 -12 4 -36 29 -168 74 -186
63 -4 -3 -11 2 -14 10 -3 9 -10 13 -15 10 -5 -3 -9 0 -9 6 0 8 -14 11 -39 8
-23 -2 -37 1 -34 6 4 5 -1 7 -10 3 -10 -4 -17 -1 -17 5 0 7 -7 3 -16 -8 -8
-10 -13 -13 -9 -6 3 6 1 12 -4 12 -27 0 -12 -18 64 -75 52 -38 97 -78 165
-144 59 -57 38 -43 -86 58 -81 66 -219 160 -267 182 -38 17 -37 52 2 47 16 -1
37 4 46 12 10 8 20 14 22 13 1 -2 6 -3 10 -3 4 0 -3 7 -16 16 -19 14 -25 14
-32 3 -6 -11 -11 -11 -21 -1 -6 6 -10 12 -7 13 50 9 66 7 121 -21 35 -16 72
-30 83 -29 11 0 -1 8 -27 17 -25 9 -55 24 -65 33 -10 8 -60 28 -111 44 -94 29
-122 45 -81 45 23 0 168 -49 319 -109 l55 -21 -27 25 c-28 26 -161 83 -338
145 -52 18 -99 38 -105 45 -25 30 -440 145 -840 234 -413 91 -821 168 -833
156 -3 -3 2 -5 10 -5 9 0 18 -8 21 -19 3 -12 17 -20 45 -25 61 -9 46 -32 -18
-28 -30 3 -48 8 -44 14 4 6 -2 6 -14 -1 -28 -15 -42 -14 -42 4 0 8 -5 15 -11
15 -5 0 -7 -4 -4 -10 4 -6 -13 -10 -45 -10 -43 0 -50 3 -48 17 2 14 -8 19 -52
26 -30 4 -69 7 -87 5 -17 -2 -29 0 -27 4 3 4 -6 8 -20 8 -19 0 -26 -5 -26 -19
0 -14 -6 -19 -22 -18 -13 0 -26 5 -30 11 -3 5 -27 9 -52 7 -25 -1 -46 2 -46 7
0 5 -11 7 -25 4 -14 -2 -47 3 -74 12 -28 9 -65 15 -83 14 -18 -1 -48 2 -65 6
-22 5 -33 4 -33 -3 0 -6 -12 -11 -26 -11 -14 0 -23 4 -20 9 3 4 -7 6 -22 4
-23 -3 -24 -2 -7 6 11 5 96 14 190 20 93 7 172 16 175 21 8 13 140 20 348 20
89 0 162 1 162 3 0 3 -35 17 -77 32 -104 36 -144 59 -437 253 -550 363 -820
526 -1149 693 -254 129 -503 220 -638 233 -54 5 -53 5 20 -14 89 -23 105 -29
99 -36 -3 -3 -43 4 -89 15 -46 11 -121 27 -167 37 -45 10 -77 21 -71 25 14 8
2 11 -201 44 -439 73 -952 131 -924 105 5 -4 103 -15 218 -24 115 -9 212 -19
215 -22 3 -3 -49 -4 -116 -2 -68 2 -119 -1 -116 -6 3 -5 -9 -6 -28 -2 -19 3
-126 7 -239 9 -272 5 -290 6 -265 17 19 8 19 9 -2 9 -13 1 -23 -3 -23 -9 0 -5
-10 -10 -22 -10 -19 0 -20 2 -8 10 11 7 -1 10 -40 10 -63 0 -284 18 -380 30
-48 7 -14 8 125 6 105 -1 179 1 165 5 -14 4 -84 7 -157 8 -140 1 -192 17 -76
24 37 2 -67 2 -232 0 -165 -2 -355 -4 -422 -4 -68 -1 -123 -5 -123 -10 0 -5
-28 -8 -62 -7 l-63 1 60 8 c35 4 -6 5 -100 3 -164 -5 -194 -6 -448 -25 -93 -7
-152 -7 -160 -1 -7 5 -34 15 -62 21 -27 7 -63 20 -80 30 -24 13 -37 15 -63 7z
m1853 -136 c146 1 194 -18 55 -21 -58 -1 -152 -3 -210 -5 -221 -6 -278 -5
-380 11 -58 10 -107 19 -110 22 -3 2 119 2 270 -1 151 -3 320 -6 375 -6z
m2109 -289 c12 -12 26 -21 30 -21 5 0 22 -11 38 -25 16 -14 34 -22 40 -19 5 3
18 -3 29 -15 11 -12 24 -19 29 -16 6 3 7 -1 4 -9 -4 -12 0 -16 17 -17 37 -1
55 -6 90 -23 20 -10 35 -12 39 -7 3 6 11 6 20 1 8 -6 11 -10 6 -10 -5 0 -3 -7
4 -15 7 -8 9 -15 4 -15 -14 0 30 -29 45 -30 10 0 9 4 -5 14 -10 8 -16 17 -13
20 9 9 60 -12 84 -34 23 -22 111 -54 125 -45 5 3 11 1 15 -5 4 -6 10 -8 15 -5
4 3 11 -5 15 -18 3 -12 8 -17 11 -11 5 12 173 -64 174 -78 0 -8 -19 -1 -97 33
-52 23 -53 23 -53 4 0 -9 17 -23 38 -31 20 -9 44 -20 52 -25 32 -18 165 -84
173 -85 4 -1 8 -2 10 -4 1 -1 10 -3 21 -5 10 -2 29 -13 41 -25 13 -12 45 -32
72 -45 26 -13 62 -35 78 -50 17 -14 23 -23 15 -19 -27 15 -60 12 -60 -5 0 -12
-3 -12 -12 -3 -7 7 -19 12 -28 12 -19 1 -54 30 -63 53 -3 9 -14 17 -24 17 -16
0 -16 -2 -3 -11 13 -9 13 -10 0 -6 -8 2 -14 10 -13 16 2 6 -15 22 -37 36 -22
14 -40 30 -40 36 0 5 -4 8 -9 5 -4 -3 -16 3 -26 14 -11 12 -29 19 -45 18 -15
-1 -38 5 -51 14 -17 10 -31 13 -47 7 -14 -6 -22 -5 -22 3 0 6 -8 4 -18 -5 -10
-10 -23 -17 -28 -17 -5 0 -1 5 9 11 21 12 13 29 -14 29 -10 0 -19 5 -19 11 0
5 -4 8 -9 4 -5 -3 -12 -1 -16 5 -4 6 -10 8 -14 5 -12 -7 -63 20 -95 50 -14 13
-26 22 -26 19 0 -3 -6 -2 -12 3 -13 8 -18 9 -38 12 -5 0 -10 8 -10 17 0 9 5
12 12 8 7 -4 8 -3 4 4 -12 19 -36 14 -29 -5 4 -10 -10 -1 -32 20 -46 44 -53
46 -47 9 l4 -28 -91 0 c-70 0 -88 2 -80 12 8 9 2 10 -28 4 -41 -10 -50 -6 -55
25 -3 17 -15 31 -63 67 -5 5 -20 16 -33 26 l-23 17 29 -1 c16 0 34 -4 40 -8
19 -11 14 5 -5 20 -17 13 -17 13 1 14 23 0 16 10 -10 14 -10 2 -20 9 -22 16
-3 8 0 10 9 5 8 -5 11 -4 6 0 -4 5 -17 10 -30 12 -26 4 -96 11 -115 12 -8 1
-10 6 -6 14 6 8 3 8 -9 -1 -14 -12 -20 -11 -44 6 -15 11 -38 23 -50 26 -52 16
-15 23 113 20 122 -2 138 -5 158 -23z m-4911 -133 c-63 -82 -133 -179 -147
-203 -9 -16 -31 -111 -49 -210 -30 -163 -35 -180 -53 -177 -66 9 -237 52 -247
62 -11 10 6 37 115 180 115 152 134 173 149 164 8 -5 11 -2 7 8 -9 23 5 37 37
39 47 3 57 0 49 -13 -4 -7 5 -2 19 11 20 18 24 27 15 33 -8 4 -14 2 -16 -7 -2
-8 -8 -15 -13 -15 -6 0 -7 5 -4 10 3 6 -1 10 -9 10 -9 0 -16 -4 -16 -8 0 -4
-9 -8 -21 -8 -18 0 -18 2 -5 12 9 6 16 17 16 25 0 11 2 11 8 1 5 -6 20 -11 35
-10 20 2 23 5 15 15 -6 8 -8 16 -4 20 3 3 6 1 6 -6 0 -7 5 -9 10 -6 6 3 10 -2
10 -11 0 -15 3 -14 18 5 9 13 25 32 35 42 19 22 23 34 5 23 -7 -4 -8 -3 -4 5
4 6 11 9 16 6 5 -3 11 -1 15 5 3 5 9 10 12 10 3 0 1 -6 -4 -12z m-281 -62 c-3
-18 -94 -150 -137 -198 -30 -34 -21 -44 13 -13 14 13 29 22 33 19 4 -2 11 1
15 7 4 8 3 9 -4 5 -7 -4 -12 -1 -12 8 0 8 10 20 23 26 21 11 21 10 3 -4 -11
-9 -15 -16 -9 -16 7 0 19 8 29 17 15 16 15 17 -2 23 -15 5 -12 9 16 18 18 7
34 12 36 12 12 0 -14 -42 -87 -140 -47 -63 -103 -141 -125 -172 -21 -32 -47
-57 -56 -58 -26 0 -156 49 -228 86 -78 41 -143 98 -138 122 3 15 180 142 200
142 10 0 -29 -40 -39 -41 -5 0 -16 -8 -25 -16 -10 -9 -18 -13 -18 -8 0 4 -7 2
-15 -5 -8 -7 -13 -16 -10 -20 3 -5 -3 -15 -13 -22 -29 -21 -35 -37 -12 -31 12
3 18 8 16 11 -19 18 148 118 304 182 25 10 83 34 130 54 91 38 117 41 112 12z
m5611 -157 c102 -51 279 -154 630 -366 28 -17 56 -29 61 -26 5 4 6 1 2 -5 -3
-5 9 -20 28 -31 32 -20 52 -48 42 -58 -2 -3 -49 5 -103 16 -185 38 -298 52
-415 52 -64 0 -128 -3 -142 -7 -19 -4 -27 -1 -36 18 -62 119 -218 145 -374 60
-27 -15 -85 -60 -128 -101 l-79 -74 -92 7 c-136 10 -129 6 -167 99 -18 45 -64
150 -102 232 -38 83 -72 156 -75 163 -4 8 7 12 38 12 64 0 172 21 190 36 12
11 71 14 285 15 148 0 278 4 289 9 11 5 21 9 23 9 1 1 57 -26 125 -60z m-3877
-78 c-4 -5 -1 -11 6 -13 6 -2 12 -11 14 -20 1 -11 -3 -15 -13 -11 -12 5 -13 2
-6 -13 6 -10 8 -25 5 -33 -2 -8 0 -11 5 -8 9 6 9 -21 0 -108 -1 -11 -6 -23
-12 -27 -7 -5 -6 -8 1 -8 14 0 14 -90 0 -90 -6 0 -5 -4 2 -8 10 -7 10 -15 2
-36 -6 -17 -6 -25 0 -21 6 3 10 2 10 -4 0 -5 -6 -12 -12 -14 -9 -4 -9 -8 -3
-14 12 -10 14 -63 2 -63 -4 0 -20 11 -35 25 -16 15 -34 23 -44 19 -14 -4 -17
-1 -12 13 5 14 4 15 -4 3 -14 -19 -6 -30 23 -30 25 0 41 -15 26 -24 -5 -4 -11
-2 -13 2 -1 5 -17 12 -35 15 -23 4 -33 2 -37 -9 -4 -9 -2 -12 5 -8 7 4 10 1 7
-7 -3 -8 -11 -13 -18 -11 -11 3 -11 0 0 -12 11 -14 9 -16 -10 -16 -24 0 -23
-5 -5 160 2 19 7 62 10 95 3 33 8 69 10 80 2 11 4 31 4 45 1 14 5 32 11 40 7
12 12 12 28 -4 15 -13 22 -14 28 -5 4 8 3 10 -4 5 -8 -5 -10 -2 -6 8 8 21 13
20 25 -6 l10 -23 -5 23 c-3 17 -1 22 10 18 24 -9 15 10 -10 22 -19 8 -26 8
-29 -1 -3 -7 -4 -2 -4 11 1 21 17 33 17 11 0 -5 5 -7 10 -4 6 3 10 2 10 -3 0
-5 7 -9 15 -9 19 0 19 6 -2 31 -12 14 -13 17 -3 9 9 -7 21 -8 29 -4 10 6 9 10
-4 15 -14 5 -13 26 1 26 3 0 3 -4 0 -9z m-2016 -308 c0 3 17 1 38 -4 20 -6 43
-11 50 -13 8 -1 17 -7 20 -12 4 -5 23 -9 42 -10 30 -1 85 -10 85 -14 0 -1 20
-3 45 -6 24 -2 46 -8 50 -12 3 -4 23 -8 44 -9 36 -3 79 -23 47 -23 -7 0 -10
-4 -7 -9 3 -5 -1 -11 -9 -15 -17 -6 -77 13 -71 23 3 4 -4 8 -15 8 -10 1 -19
-2 -19 -7 0 -5 -17 -7 -37 -6 -30 3 -37 8 -35 23 2 17 2 17 -8 0 -7 -10 -16
-14 -23 -10 -7 5 -25 9 -42 9 -61 3 -66 4 -60 14 3 6 2 10 -4 10 -5 0 -13 -4
-16 -10 -9 -14 -31 -12 -47 3 -14 14 -60 18 -68 6 -3 -4 -14 -1 -24 7 -11 8
-14 14 -8 14 7 0 12 5 12 12 0 6 7 20 17 30 12 14 19 15 30 7 7 -6 13 -9 13
-6z m3891 -116 l116 -122 -36 3 c-47 5 -70 -15 -110 -92 -17 -34 -32 -53 -35
-45 -2 8 -9 39 -15 69 -6 30 -21 78 -34 105 -18 41 -22 64 -19 128 2 42 7 77
10 77 4 0 59 -55 123 -123z m1958 85 c21 -21 30 -41 35 -85 4 -31 8 -60 9 -64
3 -10 -114 -3 -138 9 -11 6 -29 19 -41 30 -18 16 -25 17 -48 7 -22 -10 -29 -9
-46 6 -41 37 -10 95 51 95 15 0 42 7 60 15 52 22 87 19 118 -13z m-5599 -293
c537 -54 1361 -148 1443 -165 15 -3 27 -12 27 -20 0 -16 -12 -18 -26 -5 -12
13 -139 29 -156 21 -13 -7 -76 -1 -218 19 -106 15 -434 51 -457 50 -32 -1 86
-27 272 -59 99 -18 250 -44 335 -60 85 -16 179 -32 208 -36 52 -7 52 -7 47
-38 -4 -17 -15 -103 -25 -191 -10 -88 -18 -154 -19 -147 -1 7 -17 12 -45 12
-25 0 -78 4 -118 10 -40 5 -93 11 -118 14 -502 60 -1555 103 -1623 67 -30 -16
-77 -8 -77 14 0 7 4 17 10 20 6 4 5 11 -3 19 -19 21 -57 -21 -50 -57 5 -27 28
-37 35 -15 5 14 40 -22 74 -74 29 -45 29 -48 6 -48 -10 0 -42 24 -71 54 -45
46 -57 67 -86 151 -41 118 -60 220 -51 269 6 32 26 52 26 26 0 -6 10 -5 26 2
19 9 30 9 43 1 14 -9 22 -9 31 0 10 9 11 9 6 0 -10 -18 4 -16 91 13 61 21 98
27 173 28 107 1 170 -5 163 -16 -7 -13 12 -9 26 5 10 10 11 9 5 -6 -5 -13 -2
-16 10 -11 9 3 14 9 12 13 -2 3 8 7 22 7 15 1 47 4 71 8 40 6 42 5 30 -11 -11
-13 -11 -15 -1 -9 7 4 18 18 23 30 9 19 9 19 6 -6 -3 -19 0 -25 10 -21 7 3 10
10 6 16 -4 6 -1 7 8 1 20 -13 30 -12 62 3 24 12 27 12 27 -2 0 -15 1 -15 16 0
9 9 19 13 22 10 4 -3 0 -10 -8 -15 -9 -6 -10 -10 -3 -10 6 0 14 4 18 9 6 10
45 11 45 1 0 -3 14 -5 30 -6 21 -1 28 3 23 10 -5 7 1 3 11 -9 16 -16 18 -17
13 -2 -4 9 -2 17 3 17 6 0 10 4 10 9 0 17 -390 57 -735 75 l-240 13 183 2
c142 1 183 4 180 14 -6 15 -301 47 -324 34 -19 -11 -29 -3 -19 14 10 15 65 11
585 -42z m1845 -214 c628 -82 1173 -158 1355 -190 162 -28 415 -66 475 -71 33
-2 84 -9 114 -15 29 -6 59 -8 67 -5 7 3 16 1 19 -3 2 -5 26 -12 52 -15 27 -4
64 -9 84 -12 l36 -5 2 -62 c1 -34 4 -70 7 -81 5 -16 2 -18 -22 -13 -379 81
-949 192 -1034 202 -67 7 -74 11 -87 51 -10 29 -10 31 13 28 41 -4 106 -15
213 -35 57 -11 106 -17 109 -15 2 3 -13 8 -34 11 -22 4 -48 13 -60 20 -26 16
-136 36 -414 75 -118 17 -244 35 -279 41 -35 5 -66 8 -68 5 -6 -6 89 -26 155
-33 57 -6 80 -22 35 -24 -15 -1 -31 -1 -35 0 -13 2 -9 -17 5 -22 6 -2 10 -7 7
-10 -5 -5 -257 38 -290 49 -13 5 -12 7 3 19 16 12 16 14 2 29 -21 21 -85 22
-85 1 0 -8 7 -15 15 -15 8 0 15 -4 15 -10 0 -13 -16 -13 -97 4 -37 8 -106 20
-153 26 -47 6 -109 18 -139 26 -30 9 -80 20 -110 25 -30 5 -57 13 -61 19 -10
16 -117 31 -146 20 -21 -8 -24 -7 -24 11 0 18 5 20 43 14 23 -3 164 -21 312
-40z m2443 -10 c218 -23 629 -74 772 -96 189 -29 191 -29 186 -38 -3 -4 48
-16 112 -25 400 -62 1247 -239 1276 -267 14 -13 15 -13 -165 31 -605 146
-1297 258 -2104 341 -121 12 -226 27 -232 32 -16 11 -17 37 -3 37 6 0 77 -7
158 -15z m-2428 -114 c482 -90 2188 -436 2198 -446 2 -2 -3 -48 -12 -102 -8
-54 -18 -136 -22 -181 -5 -61 -10 -82 -20 -78 -186 71 -604 165 -969 216 -44
6 -91 13 -105 16 -112 19 -311 44 -353 45 -29 0 -61 4 -72 8 -19 8 -19 8 2 21
12 8 19 20 15 28 -3 10 -1 13 6 8 6 -4 20 -1 30 5 15 9 50 8 158 -5 76 -10
158 -21 182 -26 23 -4 42 -4 42 0 0 5 -44 16 -97 25 -168 28 -212 39 -180 43
16 2 27 9 27 18 0 8 5 12 10 9 6 -4 7 -12 3 -18 -5 -9 -2 -8 8 0 34 28 166 17
379 -32 82 -19 201 -44 262 -55 273 -51 335 -62 363 -65 17 -2 22 -1 13 1 -10
3 -18 10 -18 15 0 5 -10 9 -23 9 -13 0 -52 9 -88 21 -35 11 -91 29 -124 40
-34 10 -124 32 -200 49 -184 39 -200 44 -200 60 0 10 -33 19 -117 31 -166 24
-204 29 -283 35 -38 3 -90 9 -115 14 -64 13 -185 30 -212 30 -19 0 -20 -2 -8
-10 10 -7 -18 -8 -85 -4 -79 5 -104 3 -119 -9 -18 -13 -12 -15 65 -22 46 -3
138 -15 204 -26 l120 -19 -346 5 c-306 4 -355 7 -425 26 -100 26 -263 34 -271
13 -12 -33 -23 -9 -23 54 0 60 25 276 36 310 2 7 12 11 21 8 10 -3 164 -32
343 -65z m6593 -116 c-3 -8 -9 -15 -14 -15 -5 0 -4 -9 3 -20 12 -19 31 -23 28
-6 -2 9 19 26 33 26 5 0 6 -4 3 -9 -4 -5 7 -12 24 -16 19 -4 30 -13 30 -23 0
-14 2 -15 9 -2 6 8 7 18 5 22 -3 4 1 8 8 8 16 -1 48 -24 48 -35 0 -4 -7 -2
-15 5 -11 9 -19 10 -26 3 -7 -7 3 -14 30 -20 22 -6 40 -8 39 -4 -3 24 6 29 62
27 33 0 60 -4 60 -8 0 -4 7 -4 17 -1 12 5 14 3 8 -7 -6 -10 -4 -12 8 -7 12 5
15 0 12 -24 -5 -33 0 -36 21 -14 9 8 24 15 35 15 10 0 19 4 19 10 0 20 226
-90 244 -119 7 -10 -43 1 -65 15 -25 15 -84 23 -96 12 -9 -7 -13 -7 -13 1 0 6
-3 10 -7 10 -5 -1 -10 0 -13 1 -3 1 -21 3 -40 4 -19 1 -44 7 -55 13 -11 6 -43
13 -70 16 -28 3 -69 10 -93 16 -24 6 -47 9 -53 6 -5 -4 -9 2 -10 12 0 10 -3
13 -6 6 -3 -9 -10 -10 -24 -3 -10 6 -19 8 -19 4 0 -3 -7 -1 -15 6 -8 6 -24 13
-37 15 -13 2 -34 7 -48 11 -14 4 -49 7 -79 8 -64 1 -81 21 -27 32 42 7 58 24
25 24 -29 0 -13 17 21 22 32 5 40 1 33 -17z m-4108 -125 c585 -99 575 -97 575
-112 0 -7 12 -23 27 -35 14 -13 23 -23 20 -23 -4 0 3 -10 15 -22 l22 -22 -22
-6 c-13 -3 -23 -8 -23 -12 3 -29 -1 -38 -15 -38 -9 0 -12 5 -8 13 5 7 1 6 -10
-3 -10 -8 -14 -16 -8 -18 5 -1 8 -12 5 -22 -3 -11 -9 -17 -14 -14 -5 3 -9 -6
-9 -20 0 -14 -5 -28 -10 -31 -6 -4 -8 -10 -6 -14 3 -4 -7 -7 -22 -6 -20 1 -28
-3 -29 -16 -2 -21 15 -20 117 8 50 13 105 17 245 17 167 0 186 -2 268 -27 48
-15 117 -41 154 -57 63 -29 256 -150 249 -157 -1 -2 -34 18 -72 43 -80 54
-221 123 -311 153 -99 32 -212 44 -347 38 -141 -7 -207 -23 -332 -82 -117 -55
-198 -110 -290 -198 -66 -62 -74 -67 -74 -45 0 23 34 66 49 61 3 -2 6 0 7 5 0
4 4 15 8 25 5 9 5 24 2 33 -6 16 -8 16 -24 0 -10 -9 -23 -16 -28 -16 -6 0 -8
-15 -6 -33 2 -22 -2 -38 -12 -46 -11 -9 -16 -10 -16 -2 0 6 -3 10 -7 10 -5 -1
-23 2 -40 6 -33 8 -41 19 -23 30 6 3 10 13 10 21 0 8 -4 14 -10 14 -5 0 -10
-9 -10 -20 0 -35 -33 -58 -79 -55 -23 1 -44 5 -47 7 -4 4 20 68 33 87 2 2 14
-1 28 -7 23 -11 27 -9 35 12 5 13 14 26 21 28 7 2 -7 18 -32 34 -62 42 -64 63
-4 58 33 -3 44 -1 39 7 -3 6 0 15 7 20 10 6 4 9 -18 9 -18 0 -33 4 -33 9 0 14
-81 23 -96 10 -7 -6 -22 -8 -33 -4 -10 3 -22 2 -24 -3 -9 -13 -62 -8 -59 6 1
7 -3 12 -9 12 -6 0 -9 -8 -7 -17 3 -18 42 -31 116 -40 43 -5 46 -10 36 -50 -5
-18 -11 -22 -30 -17 -32 8 -31 -14 1 -26 30 -12 31 -19 4 -71 -19 -38 -21 -40
-42 -26 -39 25 -61 37 -90 47 -21 8 -26 15 -23 32 3 13 7 55 10 93 4 39 11
112 18 163 l12 94 55 -9 c132 -20 338 0 328 31 -4 12 -119 44 -182 50 -44 5
-95 15 -105 21 -4 2 -5 17 -3 32 5 37 -5 49 -45 58 -32 7 -33 6 -30 -28 1 -28
5 -33 23 -31 13 1 22 -4 22 -12 0 -17 -7 -17 -41 -4 -25 9 -26 13 -26 80 0 63
2 71 18 66 9 -3 125 -24 257 -46z m-4639 27 c10 -10 48 -9 60 2 5 6 73 4 174
-4 91 -7 264 -16 385 -19 299 -9 606 -30 629 -44 5 -3 48 -6 95 -8 81 -2 211
-20 329 -46 50 -11 52 -12 52 -45 0 -28 -3 -33 -17 -29 -32 9 -204 34 -343 50
-246 27 -850 64 -1173 71 -109 3 -206 9 -215 14 -9 4 -34 11 -54 15 -35 6 -56
21 -45 32 5 6 88 21 104 19 7 0 16 -4 19 -8z m-1772 -179 c208 -116 419 -242
409 -245 -11 -4 -402 151 -471 186 -44 23 -48 30 -31 62 18 35 5 40 -28 9 -40
-37 -46 -38 -27 -2 7 15 14 33 14 40 0 21 20 14 134 -50z m3540 30 l-5 -23 12
23 c10 18 18 21 43 18 17 -3 88 -8 157 -12 69 -3 132 -10 140 -15 10 -6 7 -9
-12 -9 -14 0 -36 -10 -48 -21 -22 -21 -29 -22 -152 -15 -150 8 -160 10 -155
39 3 12 5 25 5 30 1 4 5 7 10 7 5 0 7 -10 5 -22z m5675 -69 c23 -7 41 -18 41
-24 0 -14 37 -27 42 -15 2 4 31 -1 66 -12 34 -10 60 -23 57 -28 -4 -6 2 -10
12 -11 10 0 31 -3 48 -5 44 -8 350 -132 510 -208 156 -74 435 -227 435 -238 0
-3 -9 -10 -21 -13 -14 -5 -59 15 -157 68 -325 178 -638 318 -929 417 -45 15
-88 32 -95 36 -7 5 -15 9 -18 9 -23 3 -49 19 -54 31 -4 11 -2 15 8 11 8 -3 32
-11 55 -18z m-8004 -303 c101 -50 173 -129 236 -261 62 -127 85 -219 94 -370
14 -259 -54 -489 -185 -625 -81 -84 -149 -115 -255 -115 -70 0 -88 4 -146 32
-204 101 -339 384 -339 710 0 133 17 230 60 341 109 283 318 395 535 288z
m1035 -207 c122 -21 978 -231 962 -237 -6 -2 -86 11 -179 27 -92 17 -334 60
-538 96 -621 109 -620 109 -623 129 -3 16 6 17 130 11 73 -4 185 -16 248 -26z
m8094 -38 l28 -19 -64 -36 c-97 -54 -266 -132 -354 -163 -72 -25 -91 -28 -209
-27 -144 1 -530 37 -586 55 -38 12 -87 45 -79 52 3 3 30 1 60 -4 30 -5 111
-13 180 -19 69 -6 148 -12 175 -14 205 -18 311 -17 385 3 85 23 239 88 350
149 41 23 77 42 80 42 3 0 18 -9 34 -19z m-1773 -15 c8 4 10 3 5 -4 -4 -7 -3
-12 1 -12 5 0 18 -7 29 -15 12 -9 13 -13 4 -10 -11 4 -16 -1 -17 -15 -1 -11 1
-19 5 -19 20 3 32 -3 32 -16 0 -9 6 -12 15 -9 9 4 15 0 15 -10 0 -9 7 -16 15
-16 8 0 15 -5 15 -11 0 -5 4 -8 10 -4 5 3 18 -3 29 -14 10 -10 29 -22 42 -26
13 -4 46 -32 73 -61 27 -30 54 -54 60 -54 6 0 24 -11 40 -25 l29 -25 -32 0
c-69 0 -321 32 -400 51 -47 11 -117 21 -157 21 -82 0 -79 -2 -157 109 -29 42
-41 66 -31 66 8 0 14 -6 14 -13 0 -7 14 -24 32 -38 29 -23 33 -23 45 -8 14 20
17 36 4 28 -5 -3 -9 0 -8 7 1 32 -4 48 -13 42 -5 -3 -10 -2 -10 4 0 5 57 28
126 51 l126 41 20 -20 c10 -12 24 -21 31 -20 9 0 9 2 -1 6 -7 2 -17 14 -23 26
-9 21 -9 21 5 3 8 -10 20 -15 27 -10z m-8745 -77 c27 -29 155 -128 322 -248
39 -29 72 -55 72 -57 0 -2 -18 3 -40 12 -42 17 -89 12 -60 -6 9 -6 10 -10 3
-10 -6 0 -14 4 -17 9 -3 4 -26 11 -51 14 -63 9 -184 70 -229 116 -34 35 -37
42 -43 119 -4 50 -2 82 4 82 5 0 22 -14 39 -31z m7726 -203 c245 -85 453 -339
514 -626 65 -310 -19 -645 -210 -836 -193 -193 -431 -233 -672 -114 -140 69
-291 231 -359 385 -125 283 -121 597 11 862 144 288 440 425 716 329z m-3613
-21 c64 -8 335 -42 604 -75 837 -103 1190 -156 1341 -199 148 -43 159 -48 151
-69 -4 -9 -10 -25 -13 -35 -4 -14 -11 -17 -31 -13 -14 3 -165 30 -336 61 -170
30 -330 60 -355 65 -25 5 -112 21 -195 35 -269 47 -1300 236 -1310 240 -22 8
35 4 144 -10z m5170 -161 c32 -9 48 -19 45 -27 -2 -7 9 -28 26 -47 16 -18 30
-38 30 -43 0 -5 10 -19 21 -31 12 -13 36 -50 54 -84 18 -33 34 -59 37 -57 2 2
8 -7 15 -21 6 -13 8 -24 4 -24 -6 0 -273 268 -326 329 l-30 34 37 -7 c20 -4
59 -13 87 -22z m-512 -70 c62 -14 123 -34 137 -45 27 -21 50 -75 36 -84 -5 -3
-53 3 -107 14 -54 11 -118 22 -141 26 -39 6 -46 12 -63 49 -26 57 -25 78 4 71
12 -2 72 -16 134 -31z"/>
<path d="M2220 5010 c0 -5 6 -10 13 -10 7 0 29 -11 49 -25 20 -14 74 -37 120
-52 61 -20 76 -28 58 -31 l-24 -4 24 -14 c23 -13 19 -14 -45 -9 -38 3 -90 10
-115 15 -49 10 -116 18 -167 19 -18 1 -44 12 -61 26 -27 22 -62 34 -62 20 0
-14 40 -82 57 -97 37 -33 132 -69 215 -80 74 -10 92 -9 168 11 99 25 126 46
116 88 -11 41 -94 117 -151 137 -53 18 -195 22 -195 6z"/>
<path d="M4288 4780 c-119 -15 -188 -47 -188 -86 0 -46 58 -108 139 -149 112
-56 263 -68 378 -29 91 30 103 63 53 133 -72 98 -227 152 -382 131z m57 -73
c7 -9 21 -17 32 -17 27 0 174 -39 193 -51 11 -8 7 -9 -15 -4 -29 5 -29 5 9
-19 l39 -24 -59 4 c-97 8 -194 25 -194 35 0 5 -13 6 -30 3 -18 -4 -36 -1 -45
6 -11 9 -15 9 -15 1 0 -9 -6 -8 -22 1 -13 6 -32 11 -44 9 -40 -4 -52 37 -14
52 8 3 2 6 -15 6 -24 1 -27 3 -15 12 9 6 51 8 99 6 64 -3 87 -8 96 -20z"/>
<path d="M1463 4089 c-54 -16 -58 -38 -21 -126 17 -43 58 -129 91 -191 32 -62
57 -118 54 -125 -4 -13 -80 112 -164 270 -30 57 -60 106 -66 110 -24 15 -157
-156 -157 -202 0 -19 56 -60 197 -143 63 -37 108 -71 104 -75 -5 -5 -79 25
-166 67 -87 42 -161 76 -166 76 -17 0 -49 -164 -49 -251 0 -73 12 -84 71 -64
24 8 64 19 87 25 31 8 42 15 38 25 -4 12 -2 12 12 4 13 -8 31 -7 70 4 50 15
67 11 40 -10 -7 -5 -67 -31 -133 -56 -162 -63 -187 -79 -179 -114 18 -81 26
-103 37 -103 9 0 9 -2 -1 -8 -20 -14 36 -163 61 -161 7 0 59 72 117 160 57 87
108 159 112 159 13 0 -10 -47 -76 -159 -87 -147 -116 -206 -116 -236 0 -33
149 -188 173 -180 10 5 17 28 21 83 8 85 33 298 42 351 4 22 9 30 15 24 7 -7
5 -70 -5 -191 -28 -313 -27 -314 77 -314 84 1 124 9 131 28 3 8 -24 103 -59
211 -36 107 -65 203 -65 211 0 38 29 -19 70 -138 47 -136 96 -246 113 -257 13
-8 123 109 146 157 9 19 15 45 13 56 -2 13 -38 48 -90 87 -206 156 -219 190
-24 62 72 -47 135 -85 141 -85 14 0 26 26 41 88 11 48 10 55 -6 75 -16 18 -16
19 -2 8 22 -17 26 -9 31 69 5 67 -6 100 -31 100 -11 0 -72 -18 -137 -40 -65
-21 -122 -37 -128 -33 -13 8 92 55 109 49 8 -3 13 -1 11 5 -1 6 22 21 51 34
40 18 52 21 52 10 0 -10 10 -14 30 -12 23 1 30 7 30 22 0 15 -3 17 -9 7 -7
-11 -9 -11 -14 2 -4 10 -1 16 7 16 8 0 17 7 20 15 13 34 -51 257 -85 297 -19
23 -19 23 -35 3 -8 -11 -47 -86 -87 -167 -39 -82 -75 -148 -79 -148 -5 0 -4 8
2 18 5 9 32 78 59 152 27 74 59 158 72 187 l22 51 -32 40 c-46 59 -130 132
-151 132 -15 0 -19 -12 -24 -87 -3 -49 -2 -149 2 -223 6 -92 5 -141 -2 -152
-12 -19 -36 -24 -36 -8 0 6 7 10 15 10 12 0 14 8 10 38 -7 50 -23 235 -31 358
l-6 102 -30 6 c-41 8 -96 6 -135 -5z"/>
<path d="M7688 3514 c-82 -28 -118 -53 -118 -84 0 -20 73 -122 218 -303 88
-110 106 -141 68 -120 -14 8 -266 287 -325 360 -14 18 -32 33 -38 33 -39 0
-201 -250 -188 -290 10 -31 50 -47 300 -120 136 -39 166 -52 148 -63 -9 -6
-50 1 -208 38 -99 22 -98 25 5 10 l35 -5 -35 13 c-19 6 -40 15 -46 19 -6 4
-31 12 -55 18 -24 6 -53 13 -64 17 -37 10 -115 11 -115 0 0 -6 3 -7 6 -4 4 3
14 2 23 -2 9 -5 32 -12 52 -15 37 -6 91 -24 74 -25 -6 -1 -41 6 -79 13 -38 8
-73 13 -77 10 -16 -10 -29 -111 -29 -228 0 -107 3 -127 19 -147 21 -26 19 -26
114 15 20 9 37 14 37 12 0 -8 -108 -56 -124 -56 -9 0 -16 -4 -16 -10 0 -5 9
-10 21 -10 14 0 19 -5 16 -14 -3 -7 28 7 69 32 41 25 76 43 79 40 2 -2 -29
-23 -69 -46 -41 -23 -84 -50 -96 -60 l-22 -17 22 -65 c48 -142 133 -273 170
-263 23 6 154 249 143 266 -3 5 -1 7 5 3 6 -3 29 29 57 79 25 47 51 85 56 85
15 0 4 -28 -81 -210 -97 -206 -132 -294 -124 -313 13 -34 221 -157 266 -157
38 0 44 22 36 129 -13 153 -6 452 9 426 6 -11 16 -90 22 -175 14 -199 31 -349
43 -379 8 -23 11 -24 86 -18 99 7 201 43 221 78 13 24 12 29 -36 100 -100 149
-224 359 -218 369 10 17 20 6 111 -128 117 -170 212 -292 229 -292 32 0 189
209 195 260 6 40 -1 61 -22 68 -155 54 -398 148 -398 153 0 18 36 14 145 -18
66 -19 160 -45 209 -57 85 -22 89 -23 106 -6 11 11 21 41 25 77 4 32 9 65 11
74 3 10 -8 22 -28 33 -30 15 -21 15 19 -1 15 -6 16 3 10 86 -6 91 -21 131 -50
131 -6 0 -96 -41 -199 -92 -155 -75 -191 -89 -201 -78 -10 10 -9 11 1 5 8 -4
22 1 35 13 24 22 120 82 131 82 4 0 4 -5 0 -12 -9 -14 -6 -13 123 47 81 38 99
50 90 60 -7 7 -16 10 -22 6 -5 -5 -19 -11 -30 -14 -14 -5 -11 0 9 16 16 12 41
31 54 43 l26 21 -28 75 c-30 83 -102 213 -134 241 -46 42 -65 14 -183 -263
-63 -146 -79 -177 -79 -149 0 18 93 298 141 423 l33 89 -39 33 c-65 55 -179
108 -233 108 l-47 1 2 -85 c1 -47 13 -161 27 -253 15 -92 26 -178 26 -190 -1
-21 -1 -21 -11 -3 -15 25 -78 316 -113 519 l-7 37 -57 0 c-34 -1 -88 -11 -134
-26z"/>
<path d="M4035 6298 c-4 -10 -42 -14 -143 -16 -227 -4 -630 -50 -714 -81 -13
-4 -29 -6 -37 -3 -8 2 -11 0 -8 -5 3 -5 -8 -7 -26 -5 -24 3 -38 -3 -56 -22
-14 -14 -21 -26 -16 -26 5 0 1 -6 -9 -13 -16 -12 -16 -14 -2 -14 14 0 20 10
17 29 0 4 6 5 14 1 11 -4 12 -9 6 -17 -8 -9 -2 -12 22 -11 18 1 38 -3 45 -8
14 -11 70 9 58 20 -3 3 -1 12 5 19 6 8 9 20 6 27 -3 8 1 14 8 14 8 0 16 -9 18
-19 3 -11 0 -18 -8 -18 -8 0 -17 -5 -20 -10 -9 -15 48 0 57 14 6 8 8 8 8 0 0
-7 15 -8 48 -3 189 32 582 66 739 65 l111 -1 -16 30 c-10 17 -18 32 -20 34 -1
2 -10 5 -20 6 -9 1 -27 7 -40 14 -18 9 -23 9 -27 -1z"/>
</g>
</svg>
